<?xml version="1.0" standalone="no"?><!DOCTYPE svg PUBLIC "-//W3C//DTD SVG 1.1//EN" "http://www.w3.org/Graphics/SVG/1.1/DTD/svg11.dtd"><svg t="1617631908722" class="icon" viewBox="0 0 1024 1024" version="1.1" xmlns="http://www.w3.org/2000/svg" p-id="713" xmlns:xlink="http://www.w3.org/1999/xlink" width="200" height="200"><defs><style type="text/css"></style></defs><path d="M714.7 734.7m-42.6 0a42.6 42.6 0 1 0 85.2 0 42.6 42.6 0 1 0-85.2 0Z" fill="#363838" p-id="714"></path><path d="M481.267644 741.515154a42.6 42.6 0 1 0 84.100917-13.64096 42.6 42.6 0 1 0-84.100917 13.64096Z" fill="#363838" p-id="715"></path><path d="M331.9 734.7m-42.6 0a42.6 42.6 0 1 0 85.2 0 42.6 42.6 0 1 0-85.2 0Z" fill="#363838" p-id="716"></path><path d="M714.7 583.6m-42.6 0a42.6 42.6 0 1 0 85.2 0 42.6 42.6 0 1 0-85.2 0Z" fill="#363838" p-id="717"></path><path d="M481.265715 590.413214a42.6 42.6 0 1 0 84.100917-13.640959 42.6 42.6 0 1 0-84.100917 13.640959Z" fill="#363838" p-id="718"></path><path d="M331.9 583.6m-42.6 0a42.6 42.6 0 1 0 85.2 0 42.6 42.6 0 1 0-85.2 0Z" fill="#363838" p-id="719"></path><path d="M860.3 150.5H756.5v-2.1c0-17.9-14.5-32.4-32.4-32.4h-4.3c-17.9 0-32.4 14.5-32.4 32.4v2.1H341.5v-2.1c0-17.9-14.5-32.4-32.4-32.4h-4.3c-17.9 0-32.4 14.5-32.4 32.4v2.1H168.7c-38.2 0-69.2 31-69.2 69.2v657.1c0 38.2 31 69.2 69.2 69.2h691.7c38.2 0 69.2-31 69.2-69.2V219.7c-0.1-38.2-31.1-69.2-69.3-69.2zM168.6 876.8v-415h691.7v415H168.6z m691.7-484.2H168.6V219.7h103.7v45.8c0 17.9 14.5 32.4 32.4 32.4h4.3c17.9 0 32.4-14.5 32.4-32.4v-45.8h345.9v45.8c0 17.9 14.5 32.4 32.4 32.4h4.3c17.9 0 32.4-14.5 32.4-32.4v-45.8h103.8v172.9z" fill="#363838" p-id="720"></path></svg>